STARTFONT 2.1
COMMENT
COMMENT Converted from OpenType font "FreeUniversal-Regular.ttf" by "otf2bdf 3.0".
COMMENT
FONT -FreeType-FreeUniversal-Medium-R-Normal--23-230-72-72-P-109-ISO10646-1
SIZE 23 72 72
FONTBOUNDINGBOX 31 30 -2 -6
STARTPROPERTIES 19
FOUNDRY "FreeType"
FAMILY_NAME "FreeUniversal"
WEIGHT_NAME "Medium"
SLANT "R"
SETWIDTH_NAME "Normal"
ADD_STYLE_NAME ""
PIXEL_SIZE 23
POINT_SIZE 230
RESOLUTION_X 72
RESOLUTION_Y 72
SPACING "P"
AVERAGE_WIDTH 109
CHARSET_REGISTRY "ISO10646"
CHARSET_ENCODING "1"
FONT_ASCENT 23
FONT_DESCENT 5
COPYRIGHT "(FreeUniversal) Copyright (c) Stephen Wilson 2009    a modification of:    Original Font (SIL Sophia)  Copyright (c) SIL International, 1994-2008.    "
_OTF_FONTFILE "FreeUniversal-Regular.ttf"
_OTF_PSNAME "FreeUniversal-Regular"
ENDPROPERTIES
CHARS 243
STARTCHAR 0020
ENCODING 32
SWIDTH 304 0
DWIDTH 7 0
BBX 0 0 0 0
BITMAP
ENDCHAR
STARTCHAR 0021
ENCODING 33
SWIDTH 347 0
DWIDTH 8 0
BBX 2 17 3 0
BITMAP
C0
C0
C0
C0
C0
C0
C0
C0
C0
C0
C0
C0
C0
00
00
C0
C0
ENDCHAR
STARTCHAR 0022
ENCODING 34
SWIDTH 434 0
DWIDTH 10 0
BBX 7 7 2 10
BITMAP
CE
CE
C6
C6
C4
C4
C4
ENDCHAR
STARTCHAR 0023
ENCODING 35
SWIDTH 739 0
DWIDTH 17 0
BBX 15 17 1 0
BITMAP
0118
0318
0318
0330
0630
3FFE
0620
0460
0C60
0C40
FFF8
18C0
1880
1180
3180
3180
3100
ENDCHAR
STARTCHAR 0024
ENCODING 36
SWIDTH 565 0
DWIDTH 13 0
BBX 11 21 1 -2
BITMAP
0400
0400
3F00
7F80
C4C0
C4C0
C400
C400
F400
7F00
3FC0
05E0
04E0
0460
C460
C460
E460
7FC0
3F80
0400
0400
ENDCHAR
STARTCHAR 0025
ENCODING 37
SWIDTH 913 0
DWIDTH 21 0
BBX 19 17 1 0
BITMAP
3C0200
7E0400
E30C00
C30800
C31800
C31000
C33000
666000
3E4780
00CFC0
009860
019860
011860
021860
061860
040FC0
0C0780
ENDCHAR
STARTCHAR 0026
ENCODING 38
SWIDTH 739 0
DWIDTH 17 0
BBX 15 17 1 0
BITMAP
0F00
3F80
30C0
30C0
31C0
3B80
1F00
1C18
7618
6718
E398
C1D8
C0F0
E070
6078
7BFC
1F8E
ENDCHAR
STARTCHAR 0027
ENCODING 39
SWIDTH 347 0
DWIDTH 8 0
BBX 2 7 3 10
BITMAP
C0
C0
C0
C0
C0
C0
40
ENDCHAR
STARTCHAR 0028
ENCODING 40
SWIDTH 347 0
DWIDTH 8 0
BBX 4 20 2 -3
BITMAP
30
30
60
60
60
E0
C0
C0
C0
C0
C0
C0
C0
C0
E0
60
60
60
30
30
ENDCHAR
STARTCHAR 0029
ENCODING 41
SWIDTH 347 0
DWIDTH 8 0
BBX 4 20 2 -3
BITMAP
C0
40
60
60
60
30
30
30
30
30
30
30
30
30
30
60
60
60
40
C0
ENDCHAR
STARTCHAR 002A
ENCODING 42
SWIDTH 652 0
DWIDTH 15 0
BBX 9 9 3 8
BITMAP
2200
3600
1600
1C00
FF80
9C80
1400
3600
2200
ENDCHAR
STARTCHAR 002B
ENCODING 43
SWIDTH 1043 0
DWIDTH 24 0
BBX 14 14 5 0
BITMAP
0200
0200
0200
0200
0200
0200
FFFC
0200
0200
0200
0200
0200
0200
0200
ENDCHAR
STARTCHAR 002C
ENCODING 44
SWIDTH 260 0
DWIDTH 6 0
BBX 4 6 1 -3
BITMAP
70
70
60
60
C0
C0
ENDCHAR
STARTCHAR 002D
ENCODING 45
SWIDTH 347 0
DWIDTH 8 0
BBX 6 1 1 5
BITMAP
FC
ENDCHAR
STARTCHAR 002E
ENCODING 46
SWIDTH 260 0
DWIDTH 6 0
BBX 2 3 2 0
BITMAP
C0
C0
C0
ENDCHAR
STARTCHAR 002F
ENCODING 47
SWIDTH 391 0
DWIDTH 9 0
BBX 7 18 1 -1
BITMAP
06
06
04
0C
0C
08
08
18
18
10
30
30
20
20
60
60
40
C0
ENDCHAR
STARTCHAR 0030
ENCODING 48
SWIDTH 565 0
DWIDTH 13 0
BBX 10 17 1 0
BITMAP
1E00
3F80
6180
60C0
C0C0
C0C0
C0C0
C0C0
C0C0
C0C0
C0C0
C0C0
C0C0
61C0
6180
3F80
1E00
ENDCHAR
STARTCHAR 0031
ENCODING 49
SWIDTH 565 0
DWIDTH 13 0
BBX 5 17 3 0
BITMAP
38
78
F8
D8
18
18
18
18
18
18
18
18
18
18
18
18
18
ENDCHAR
STARTCHAR 0032
ENCODING 50
SWIDTH 565 0
DWIDTH 13 0
BBX 10 17 1 0
BITMAP
1E00
7F80
6180
E0C0
E0C0
00C0
01C0
0380
0380
0700
0E00
1C00
3800
7000
6000
E000
FFC0
ENDCHAR
STARTCHAR 0033
ENCODING 51
SWIDTH 565 0
DWIDTH 13 0
BBX 10 17 1 0
BITMAP
1F00
7F80
60C0
E0C0
00C0
00C0
0380
0E00
0780
01C0
00C0
00C0
C0C0
E0C0
61C0
7F80
1E00
ENDCHAR
STARTCHAR 0034
ENCODING 52
SWIDTH 565 0
DWIDTH 13 0
BBX 11 17 1 0
BITMAP
0380
0380
0780
0D80
0D80
1980
3980
3180
6180
6180
C180
FFE0
FFE0
0180
0180
0180
0180
ENDCHAR
STARTCHAR 0035
ENCODING 53
SWIDTH 565 0
DWIDTH 13 0
BBX 10 17 1 0
BITMAP
7F80
6000
6000
6000
6000
6F00
7F80
6180
40C0
00C0
00C0
00C0
00C0
C0C0
E180
7F00
1E00
ENDCHAR
STARTCHAR 0036
ENCODING 54
SWIDTH 565 0
DWIDTH 13 0
BBX 11 17 1 0
BITMAP
1F00
3B80
60C0
E0C0
C000
C000
CF00
DFC0
F1C0
E0E0
C060
C060
C060
C060
60C0
3BC0
1F00
ENDCHAR
STARTCHAR 0037
ENCODING 55
SWIDTH 565 0
DWIDTH 13 0
BBX 10 17 1 0
BITMAP
FFC0
00C0
00C0
0180
0180
0380
0300
0300
0700
0600
0600
0E00
0C00
0C00
1C00
1800
3800
ENDCHAR
STARTCHAR 0038
ENCODING 56
SWIDTH 565 0
DWIDTH 13 0
BBX 11 17 1 0
BITMAP
1F00
3B80
60C0
60C0
60C0
60C0
3180
1F00
3B80
60C0
C060
C060
C060
C060
60E0
7BC0
1F00
ENDCHAR
STARTCHAR 0039
ENCODING 57
SWIDTH 565 0
DWIDTH 13 0
BBX 11 17 1 0
BITMAP
1F00
7FC0
60C0
C0E0
C060
C060
C0E0
E0E0
71E0
3F60
0060
0060
00E0
60C0
61C0
7F80
1F00
ENDCHAR
STARTCHAR 003A
ENCODING 58
SWIDTH 260 0
DWIDTH 6 0
BBX 2 12 2 0
BITMAP
C0
C0
C0
00
00
00
00
00
00
C0
C0
C0
ENDCHAR
STARTCHAR 003B
ENCODING 59
SWIDTH 260 0
DWIDTH 6 0
BBX 3 15 1 -3
BITMAP
60
60
60
00
00
00
00
00
00
60
60
60
C0
C0
C0
ENDCHAR
STARTCHAR 003C
ENCODING 60
SWIDTH 1043 0
DWIDTH 24 0
BBX 14 12 5 1
BITMAP
000C
003C
01E0
0700
3800
E000
E000
3C00
0700
01E0
003C
000C
ENDCHAR
STARTCHAR 003D
ENCODING 61
SWIDTH 1043 0
DWIDTH 24 0
BBX 14 5 5 4
BITMAP
FFFC
0000
0000
0000
FFFC
ENDCHAR
STARTCHAR 003E
ENCODING 62
SWIDTH 1043 0
DWIDTH 24 0
BBX 14 12 5 1
BITMAP
C000
F000
1E00
0380
0070
001C
001C
00F0
0380
1E00
F000
C000
ENDCHAR
STARTCHAR 003F
ENCODING 63
SWIDTH 478 0
DWIDTH 11 0
BBX 9 17 1 0
BITMAP
3C00
FF00
C380
8180
0180
0180
0300
0700
0E00
1C00
1800
1800
1800
0000
0000
1800
1800
ENDCHAR
STARTCHAR 0040
ENCODING 64
SWIDTH 1000 0
DWIDTH 23 0
BBX 20 22 1 -5
BITMAP
01FC00
07FF00
1E0780
3801C0
3000E0
61EC60
63FC70
E31C30
C60C30
C60C30
C60C30
C60C30
C60C30
C60C30
E31C60
631FE0
61E7C0
300000
380000
1C0000
07DC00
01FC00
ENDCHAR
STARTCHAR 0041
ENCODING 65
SWIDTH 739 0
DWIDTH 17 0
BBX 16 17 1 0
BITMAP
0380
0380
07C0
06C0
0EE0
0C60
0C70
1830
1830
3838
3FF8
3FFC
600C
600C
E006
C006
C007
ENDCHAR
STARTCHAR 0042
ENCODING 66
SWIDTH 695 0
DWIDTH 16 0
BBX 12 17 2 0
BITMAP
FF80
C3E0
C070
C030
C030
C030
C070
C0E0
FF80
C1E0
C070
C030
C030
C030
C070
C3E0
FF80
ENDCHAR
STARTCHAR 0043
ENCODING 67
SWIDTH 652 0
DWIDTH 15 0
BBX 13 17 1 0
BITMAP
0FC0
3FF0
3038
6018
6018
C000
C000
C000
C000
C000
C000
C000
6000
6018
3030
3FF0
0FC0
ENDCHAR
STARTCHAR 0044
ENCODING 68
SWIDTH 739 0
DWIDTH 17 0
BBX 13 17 2 0
BITMAP
FF00
C7C0
C060
C030
C030
C018
C018
C018
C018
C018
C018
C018
C030
C030
C0E0
C7C0
FF00
ENDCHAR
STARTCHAR 0045
ENCODING 69
SWIDTH 608 0
DWIDTH 14 0
BBX 11 17 2 0
BITMAP
FFE0
C000
C000
C000
C000
C000
C000
C000
FFC0
C000
C000
C000
C000
C000
C000
C000
FFE0
ENDCHAR
STARTCHAR 0046
ENCODING 70
SWIDTH 565 0
DWIDTH 13 0
BBX 10 17 2 0
BITMAP
FFC0
C000
C000
C000
C000
C000
C000
C000
FF80
C000
C000
C000
C000
C000
C000
C000
C000
ENDCHAR
STARTCHAR 0047
ENCODING 71
SWIDTH 739 0
DWIDTH 17 0
BBX 14 17 1 0
BITMAP
07E0
1FF8
301C
600C
6000
C000
C000
C000
C0FC
C00C
C00C
E00C
600C
700C
380C
1FFC
07F8
ENDCHAR
STARTCHAR 0048
ENCODING 72
SWIDTH 695 0
DWIDTH 16 0
BBX 12 17 2 0
BITMAP
C030
C030
C030
C030
C030
C030
C030
C030
FFF0
C030
C030
C030
C030
C030
C030
C030
C030
ENDCHAR
STARTCHAR 0049
ENCODING 73
SWIDTH 260 0
DWIDTH 6 0
BBX 2 17 2 0
BITMAP
C0
C0
C0
C0
C0
C0
C0
C0
C0
C0
C0
C0
C0
C0
C0
C0
C0
ENDCHAR
STARTCHAR 004A
ENCODING 74
SWIDTH 565 0
DWIDTH 13 0
BBX 10 17 1 0
BITMAP
00C0
00C0
00C0
00C0
00C0
00C0
00C0
00C0
00C0
00C0
00C0
00C0
00C0
C0C0
E180
7F80
3E00
ENDCHAR
STARTCHAR 004B
ENCODING 75
SWIDTH 652 0
DWIDTH 15 0
BBX 12 17 2 0
BITMAP
C060
C0C0
C180
C300
C700
CE00
DC00
F800
DC00
DE00
CE00
C700
C380
C1C0
C0E0
C0E0
C070
ENDCHAR
STARTCHAR 004C
ENCODING 76
SWIDTH 521 0
DWIDTH 12 0
BBX 10 17 2 0
BITMAP
C000
C000
C000
C000
C000
C000
C000
C000
C000
C000
C000
C000
C000
C000
C000
FFC0
FFC0
ENDCHAR
STARTCHAR 004D
ENCODING 77
SWIDTH 913 0
DWIDTH 21 0
BBX 17 17 2 0
BITMAP
F00780
F00780
F00780
D80D80
D80D80
DC1D80
CC1980
CC1980
CE3980
C63180
C63180
C36180
C36180
C36180
C1C180
C1C180
C1C180
ENDCHAR
STARTCHAR 004E
ENCODING 78
SWIDTH 739 0
DWIDTH 17 0
BBX 13 17 2 0
BITMAP
E018
F018
F818
F818
DC18
DC18
CE18
C618
C718
C318
C398
C1D8
C1D8
C0F8
C0F8
C078
C038
ENDCHAR
STARTCHAR 004F
ENCODING 79
SWIDTH 739 0
DWIDTH 17 0
BBX 15 17 1 0
BITMAP
07C0
1EF0
3018
600C
600C
C006
C006
C006
C006
C006
C006
E00E
600C
600C
3018
1EF0
07C0
ENDCHAR
STARTCHAR 0050
ENCODING 80
SWIDTH 608 0
DWIDTH 14 0
BBX 11 17 2 0
BITMAP
FF00
C7C0
C0E0
C060
C060
C060
C0E0
C1C0
FF80
C000
C000
C000
C000
C000
C000
C000
C000
ENDCHAR
STARTCHAR 0051
ENCODING 81
SWIDTH 782 0
DWIDTH 18 0
BBX 16 17 1 0
BITMAP
07C0
1EF0
3018
600C
600C
C006
C006
C006
C006
C006
C006
E00E
600C
600C
3018
1EF8
07FF
ENDCHAR
STARTCHAR 0052
ENCODING 82
SWIDTH 652 0
DWIDTH 15 0
BBX 11 17 2 0
BITMAP
FF00
C7C0
C0E0
C060
C060
C060
C060
C1C0
FF00
C1C0
C0C0
C0C0
C0E0
C060
C060
C060
C060
ENDCHAR
STARTCHAR 0053
ENCODING 83
SWIDTH 652 0
DWIDTH 15 0
BBX 12 17 1 0
BITMAP
1F80
3FE0
6070
C030
C000
E000
F000
7F80
3FE0
03F0
0070
0030
C030
C030
6070
7BE0
1F80
ENDCHAR
STARTCHAR 0054
ENCODING 84
SWIDTH 652 0
DWIDTH 15 0
BBX 13 17 1 0
BITMAP
FFF8
0300
0300
0300
0300
0300
0300
0300
0300
0300
0300
0300
0300
0300
0300
0300
0300
ENDCHAR
STARTCHAR 0055
ENCODING 85
SWIDTH 739 0
DWIDTH 17 0
BBX 13 17 2 0
BITMAP
C018
C018
C018
C018
C018
C018
C018
C018
C018
C018
C018
C018
C018
6038
6030
3DE0
1FC0
ENDCHAR
STARTCHAR 0056
ENCODING 86
SWIDTH 652 0
DWIDTH 15 0
BBX 14 17 1 0
BITMAP
C01C
C018
E038
6030
6030
7070
3060
3060
38E0
18C0
18C0
1DC0
0D80
0D80
0F80
0700
0700
ENDCHAR
STARTCHAR 0057
ENCODING 87
SWIDTH 956 0
DWIDTH 22 0
BBX 22 17 0 0
BITMAP
E0381C
60781C
607818
707818
306C38
30CC30
30CC30
18CE30
18C670
198660
1D8660
0D8360
0D83C0
0F03C0
0703C0
0701C0
060180
ENDCHAR
STARTCHAR 0058
ENCODING 88
SWIDTH 695 0
DWIDTH 16 0
BBX 14 17 1 0
BITMAP
7018
7038
3830
1C60
1CE0
0EC0
0780
0780
0780
07C0
0DC0
1CE0
1870
3070
7038
601C
E01C
ENDCHAR
STARTCHAR 0059
ENCODING 89
SWIDTH 652 0
DWIDTH 15 0
BBX 14 17 0 0
BITMAP
E01C
7018
7038
3830
1870
1C60
0CC0
0EC0
0780
0380
0300
0300
0300
0300
0300
0300
0300
ENDCHAR
STARTCHAR 005A
ENCODING 90
SWIDTH 608 0
DWIDTH 14 0
BBX 12 17 1 0
BITMAP
7FF0
0030
0070
00E0
01C0
01C0
0380
0700
0700
0E00
1C00
3C00
3800
7000
F000
E000
FFF0
ENDCHAR
STARTCHAR 005B
ENCODING 91
SWIDTH 391 0
DWIDTH 9 0
BBX 4 22 2 -5
BITMAP
F0
C0
C0
C0
C0
C0
C0
C0
C0
C0
C0
C0
C0
C0
C0
C0
C0
C0
C0
C0
C0
F0
ENDCHAR
STARTCHAR 005C
ENCODING 92
SWIDTH 391 0
DWIDTH 9 0
BBX 7 18 1 -1
BITMAP
C0
C0
40
60
60
20
30
30
10
10
18
18
08
0C
0C
04
04
06
ENDCHAR
STARTCHAR 005D
ENCODING 93
SWIDTH 434 0
DWIDTH 10 0
BBX 4 22 3 -5
BITMAP
F0
30
30
30
30
30
30
30
30
30
30
30
30
30
30
30
30
30
30
30
30
F0
ENDCHAR
STARTCHAR 005E
ENCODING 94
SWIDTH 1000 0
DWIDTH 23 0
BBX 11 14 6 0
BITMAP
0400
0E00
0A00
1B00
1100
1100
3180
2080
2080
60C0
4040
C060
8020
8020
ENDCHAR
STARTCHAR 005F
ENCODING 95
SWIDTH 521 0
DWIDTH 12 0
BBX 12 1 0 -3
BITMAP
FFF0
ENDCHAR
STARTCHAR 0060
ENCODING 96
SWIDTH 217 0
DWIDTH 5 0
BBX 4 4 0 14
BITMAP
C0
60
60
30
ENDCHAR
STARTCHAR 0061
ENCODING 97
SWIDTH 565 0
DWIDTH 13 0
BBX 10 12 1 0
BITMAP
1F00
7B80
60C0
60C0
00C0
3FC0
78C0
E0C0
C0C0
C1C0
77C0
3CC0
ENDCHAR
STARTCHAR 0062
ENCODING 98
SWIDTH 608 0
DWIDTH 14 0
BBX 11 17 2 0
BITMAP
C000
C000
C000
C000
C000
CF00
DFC0
E0C0
E0E0
C060
C060
C060
C060
E0E0
E0C0
FB80
CF00
ENDCHAR
STARTCHAR 0063
ENCODING 99
SWIDTH 521 0
DWIDTH 12 0
BBX 10 12 1 0
BITMAP
1F00
7F80
61C0
C0C0
C000
C000
C000
C000
C0C0
61C0
7F80
1F00
ENDCHAR
STARTCHAR 0064
ENCODING 100
SWIDTH 608 0
DWIDTH 14 0
BBX 11 17 1 0
BITMAP
0060
0060
0060
0060
0060
1E60
7FE0
61E0
E0E0
C060
C060
C060
C060
E0E0
60E0
3BE0
1E60
ENDCHAR
STARTCHAR 0065
ENCODING 101
SWIDTH 565 0
DWIDTH 13 0
BBX 10 12 1 0
BITMAP
1F00
7F80
60C0
C0C0
C0C0
FFC0
C000
C000
C0C0
60C0
3F80
1F00
ENDCHAR
STARTCHAR 0066
ENCODING 102
SWIDTH 391 0
DWIDTH 9 0
BBX 7 17 1 0
BITMAP
1E
3E
30
30
30
FE
30
30
30
30
30
30
30
30
30
30
30
ENDCHAR
STARTCHAR 0067
ENCODING 103
SWIDTH 608 0
DWIDTH 14 0
BBX 11 17 1 -5
BITMAP
1F60
3FE0
60E0
E0E0
C060
C060
C060
C060
E0E0
60E0
7BE0
1E60
0060
60E0
60C0
3F80
1F00
ENDCHAR
STARTCHAR 0068
ENCODING 104
SWIDTH 608 0
DWIDTH 14 0
BBX 10 17 2 0
BITMAP
C000
C000
C000
C000
C000
CF00
FB80
E1C0
C0C0
C0C0
C0C0
C0C0
C0C0
C0C0
C0C0
C0C0
C0C0
ENDCHAR
STARTCHAR 0069
ENCODING 105
SWIDTH 217 0
DWIDTH 5 0
BBX 2 17 1 0
BITMAP
C0
C0
00
00
00
C0
C0
C0
C0
C0
C0
C0
C0
C0
C0
C0
C0
ENDCHAR
STARTCHAR 006A
ENCODING 106
SWIDTH 304 0
DWIDTH 7 0
BBX 3 22 2 -5
BITMAP
60
60
00
00
00
60
60
60
60
60
60
60
60
60
60
60
60
60
60
60
E0
C0
ENDCHAR
STARTCHAR 006B
ENCODING 107
SWIDTH 521 0
DWIDTH 12 0
BBX 9 17 2 0
BITMAP
C000
C000
C000
C000
C000
C380
C700
CE00
DC00
D800
F800
D800
CC00
CE00
C700
C300
C380
ENDCHAR
STARTCHAR 006C
ENCODING 108
SWIDTH 260 0
DWIDTH 6 0
BBX 2 17 2 0
BITMAP
C0
C0
C0
C0
C0
C0
C0
C0
C0
C0
C0
C0
C0
C0
C0
C0
C0
ENDCHAR
STARTCHAR 006D
ENCODING 109
SWIDTH 913 0
DWIDTH 21 0
BBX 18 12 2 0
BITMAP
CF1F00
FFBF80
E1E1C0
C0C0C0
C0C0C0
C0C0C0
C0C0C0
C0C0C0
C0C0C0
C0C0C0
C0C0C0
C0C0C0
ENDCHAR
STARTCHAR 006E
ENCODING 110
SWIDTH 608 0
DWIDTH 14 0
BBX 10 12 2 0
BITMAP
DF00
FF80
E1C0
C0C0
C0C0
C0C0
C0C0
C0C0
C0C0
C0C0
C0C0
C0C0
ENDCHAR
STARTCHAR 006F
ENCODING 111
SWIDTH 565 0
DWIDTH 13 0
BBX 11 12 1 0
BITMAP
1F00
3FC0
60C0
E0E0
C060
C060
C060
C060
E0E0
60C0
3FC0
1F00
ENDCHAR
STARTCHAR 0070
ENCODING 112
SWIDTH 608 0
DWIDTH 14 0
BBX 11 17 2 -5
BITMAP
CF00
FBC0
E0C0
E0E0
C060
C060
C060
C060
E0E0
E0C0
FBC0
CF00
C000
C000
C000
C000
C000
ENDCHAR
STARTCHAR 0071
ENCODING 113
SWIDTH 608 0
DWIDTH 14 0
BBX 11 17 1 -5
BITMAP
1E60
7BE0
60E0
E0E0
C060
C060
C060
C060
E0E0
60E0
7BE0
1E60
0060
0060
0060
0060
0060
ENDCHAR
STARTCHAR 0072
ENCODING 114
SWIDTH 391 0
DWIDTH 9 0
BBX 7 12 2 0
BITMAP
DE
FC
E0
C0
C0
C0
C0
C0
C0
C0
C0
C0
ENDCHAR
STARTCHAR 0073
ENCODING 115
SWIDTH 478 0
DWIDTH 11 0
BBX 9 12 1 0
BITMAP
3E00
7F80
C180
C000
E000
7E00
1F80
0380
C180
C180
7700
3E00
ENDCHAR
STARTCHAR 0074
ENCODING 116
SWIDTH 391 0
DWIDTH 9 0
BBX 7 15 1 0
BITMAP
30
30
30
FE
30
30
30
30
30
30
30
30
30
3A
1E
ENDCHAR
STARTCHAR 0075
ENCODING 117
SWIDTH 608 0
DWIDTH 14 0
BBX 10 12 2 0
BITMAP
C0C0
C0C0
C0C0
C0C0
C0C0
C0C0
C0C0
C0C0
C0C0
E1C0
7FC0
3CC0
ENDCHAR
STARTCHAR 0076
ENCODING 118
SWIDTH 521 0
DWIDTH 12 0
BBX 11 12 1 0
BITMAP
C060
C0C0
E0C0
61C0
6180
3180
3300
3B00
1B00
1E00
1E00
0C00
ENDCHAR
STARTCHAR 0077
ENCODING 119
SWIDTH 826 0
DWIDTH 19 0
BBX 18 12 0 0
BITMAP
E0E0C0
60E0C0
61A1C0
71B180
31B180
333180
331B00
1B1B00
1E1B00
1E0E00
0E0E00
0C0E00
ENDCHAR
STARTCHAR 0078
ENCODING 120
SWIDTH 565 0
DWIDTH 13 0
BBX 11 12 1 0
BITMAP
E0C0
71C0
3180
3B00
1F00
0E00
1E00
1F00
3380
7180
61C0
C0E0
ENDCHAR
STARTCHAR 0079
ENCODING 121
SWIDTH 521 0
DWIDTH 12 0
BBX 11 17 1 -5
BITMAP
C060
C0C0
E0C0
61C0
7180
3180
3380
3B00
1B00
1E00
0E00
0E00
0C00
0C00
1C00
1800
1800
ENDCHAR
STARTCHAR 007A
ENCODING 122
SWIDTH 434 0
DWIDTH 10 0
BBX 8 12 1 0
BITMAP
FF
03
07
0E
0C
18
38
30
60
E0
C0
FF
ENDCHAR
STARTCHAR 007B
ENCODING 123
SWIDTH 478 0
DWIDTH 11 0
BBX 8 23 2 -5
BITMAP
0F
0E
18
18
18
18
18
18
18
38
70
E0
F0
30
18
18
18
18
18
18
18
0C
0F
ENDCHAR
STARTCHAR 007C
ENCODING 124
SWIDTH 347 0
DWIDTH 8 0
BBX 1 25 4 -6
BITMAP
80
80
80
80
80
80
80
80
80
80
80
80
80
80
80
80
80
80
80
80
80
80
80
80
80
ENDCHAR
STARTCHAR 007D
ENCODING 125
SWIDTH 478 0
DWIDTH 11 0
BBX 8 23 2 -5
BITMAP
E0
70
38
18
18
18
18
18
18
1C
0E
07
0E
1C
18
18
18
18
18
18
18
30
F0
ENDCHAR
STARTCHAR 007E
ENCODING 126
SWIDTH 521 0
DWIDTH 12 0
BBX 12 2 0 5
BITMAP
3E70
E7E0
ENDCHAR
STARTCHAR 00A0
ENCODING 160
SWIDTH 304 0
DWIDTH 7 0
BBX 0 0 0 0
BITMAP
ENDCHAR
STARTCHAR 00A1
ENCODING 161
SWIDTH 347 0
DWIDTH 8 0
BBX 2 17 3 -5
BITMAP
C0
C0
00
00
00
C0
C0
C0
C0
C0
C0
C0
C0
C0
C0
C0
C0
ENDCHAR
STARTCHAR 00A2
ENCODING 162
SWIDTH 608 0
DWIDTH 14 0
BBX 10 18 2 -3
BITMAP
0100
0100
0100
1F00
7F80
62C0
C6C0
C400
C400
CC00
C800
C8C0
79C0
7F80
1F00
2000
2000
2000
ENDCHAR
STARTCHAR 00A3
ENCODING 163
SWIDTH 565 0
DWIDTH 13 0
BBX 11 17 1 0
BITMAP
0F80
1DC0
3060
3000
3000
3000
FE00
3000
3000
3000
3000
3000
3000
3000
3000
3000
FFE0
ENDCHAR
STARTCHAR 00A4
ENCODING 164
SWIDTH 565 0
DWIDTH 13 0
BBX 11 14 1 3
BITMAP
0020
8020
5F40
7B80
6080
4040
4040
4040
4040
6080
7180
5F40
8020
0020
ENDCHAR
STARTCHAR 00A5
ENCODING 165
SWIDTH 608 0
DWIDTH 14 0
BBX 12 17 1 0
BITMAP
C030
6060
6060
30E0
30C0
F9F0
1980
0F80
0F00
FFF0
0600
0600
0600
0600
0600
0600
0600
ENDCHAR
STARTCHAR 00A6
ENCODING 166
SWIDTH 347 0
DWIDTH 8 0
BBX 1 22 4 -5
BITMAP
80
80
80
80
80
80
80
80
80
00
00
00
00
80
80
80
80
80
80
80
80
80
ENDCHAR
STARTCHAR 00A7
ENCODING 167
SWIDTH 434 0
DWIDTH 10 0
BBX 8 21 1 -4
BITMAP
3E
7E
C0
C0
C0
70
78
3E
77
E3
C3
C7
EE
7C
1E
07
03
03
03
8E
FC
ENDCHAR
STARTCHAR 00A8
ENCODING 168
SWIDTH 304 0
DWIDTH 7 0
BBX 7 2 0 15
BITMAP
C6
C6
ENDCHAR
STARTCHAR 00A9
ENCODING 169
SWIDTH 826 0
DWIDTH 19 0
BBX 17 17 1 0
BITMAP
03E000
0F7800
380E00
23F200
473900
4E1900
8C0080
8C0080
8C0080
8C0080
8C1880
463900
43F100
200200
300600
0C1800
03E000
ENDCHAR
STARTCHAR 00AA
ENCODING 170
SWIDTH 391 0
DWIDTH 9 0
BBX 9 11 0 6
BITMAP
3E00
7F00
6100
0100
3F00
7100
4100
4300
3D00
0000
FF80
ENDCHAR
STARTCHAR 00AB
ENCODING 171
SWIDTH 565 0
DWIDTH 13 0
BBX 9 9 2 1
BITMAP
3180
3300
6300
E600
CC00
E600
6300
3300
1180
ENDCHAR
STARTCHAR 00AC
ENCODING 172
SWIDTH 608 0
DWIDTH 14 0
BBX 12 5 1 5
BITMAP
FFF0
0010
0010
0010
0010
ENDCHAR
STARTCHAR 00AE
ENCODING 174
SWIDTH 826 0
DWIDTH 19 0
BBX 17 17 1 0
BITMAP
03E000
0F7800
380E00
27F200
463900
461900
861880
87E080
863080
861080
861880
461900
461900
200200
380E00
0F7800
03E000
ENDCHAR
STARTCHAR 00AF
ENCODING 175
SWIDTH 304 0
DWIDTH 7 0
BBX 7 1 0 15
BITMAP
FE
ENDCHAR
STARTCHAR 00B0
ENCODING 176
SWIDTH 304 0
DWIDTH 7 0
BBX 5 6 1 11
BITMAP
70
D8
88
88
D8
70
ENDCHAR
STARTCHAR 00B1
ENCODING 177
SWIDTH 1043 0
DWIDTH 24 0
BBX 14 14 5 0
BITMAP
0200
0200
0200
0200
FFFC
0200
0200
0200
0200
0200
0000
0000
0000
FFFC
ENDCHAR
STARTCHAR 00B2
ENCODING 178
SWIDTH 391 0
DWIDTH 9 0
BBX 7 9 1 8
BITMAP
3C
7E
C6
06
0C
18
30
E0
FE
ENDCHAR
STARTCHAR 00B3
ENCODING 179
SWIDTH 391 0
DWIDTH 9 0
BBX 7 9 1 8
BITMAP
3C
7E
C6
0E
18
0E
06
CE
7C
ENDCHAR
STARTCHAR 00B4
ENCODING 180
SWIDTH 217 0
DWIDTH 5 0
BBX 3 4 2 14
BITMAP
60
60
C0
80
ENDCHAR
STARTCHAR 00B6
ENCODING 182
SWIDTH 565 0
DWIDTH 13 0
BBX 10 21 1 -4
BITMAP
1FC0
3C80
7C80
FC80
FC80
FC80
7C80
7C80
3C80
0480
0480
0480
0480
0480
0480
0480
0480
0480
0480
0480
0480
ENDCHAR
STARTCHAR 00B7
ENCODING 183
SWIDTH 260 0
DWIDTH 6 0
BBX 2 3 2 7
BITMAP
C0
C0
C0
ENDCHAR
STARTCHAR 00B8
ENCODING 184
SWIDTH 260 0
DWIDTH 6 0
BBX 6 5 1 -6
BITMAP
40
78
0C
0C
FC
ENDCHAR
STARTCHAR 00B9
ENCODING 185
SWIDTH 304 0
DWIDTH 7 0
BBX 3 9 2 8
BITMAP
60
E0
20
20
20
20
20
20
20
ENDCHAR
STARTCHAR 00BA
ENCODING 186
SWIDTH 434 0
DWIDTH 10 0
BBX 8 11 1 6
BITMAP
3C
7E
C3
C1
C1
C1
C3
62
7C
00
FF
ENDCHAR
STARTCHAR 00BB
ENCODING 187
SWIDTH 565 0
DWIDTH 13 0
BBX 9 9 2 1
BITMAP
CC00
6600
6300
3300
3980
3300
6300
6600
CC00
ENDCHAR
STARTCHAR 00BC
ENCODING 188
SWIDTH 782 0
DWIDTH 18 0
BBX 15 17 2 0
BITMAP
6030
E020
2060
2040
20C0
2080
2100
2300
2218
0618
0428
0C48
08C8
10FE
3008
2008
6008
ENDCHAR
STARTCHAR 00BD
ENCODING 189
SWIDTH 826 0
DWIDTH 19 0
BBX 16 17 2 0
BITMAP
6010
E030
2020
2060
20C0
2080
2180
2100
233E
0677
0463
0C03
0806
181C
1030
2060
607F
ENDCHAR
STARTCHAR 00BE
ENCODING 190
SWIDTH 826 0
DWIDTH 19 0
BBX 17 17 1 0
BITMAP
7C0400
FE0C00
060800
181000
1E3000
062000
C66000
CE4000
7CC600
018600
010A00
031A00
023200
063F80
040200
080200
180200
ENDCHAR
STARTCHAR 00BF
ENCODING 191
SWIDTH 521 0
DWIDTH 12 0
BBX 10 17 1 -5
BITMAP
0600
0600
0000
0000
0600
0600
0600
0E00
1C00
7000
6000
C000
C000
C0C0
F1C0
7F80
1F00
ENDCHAR
STARTCHAR 00C0
ENCODING 192
SWIDTH 739 0
DWIDTH 17 0
BBX 16 23 1 0
BITMAP
0E00
0600
0300
0100
0000
0000
0380
0380
07C0
06C0
0EE0
0C60
0C70
1830
1830
3838
3FF8
3FFC
600C
600C
E006
C006
C007
ENDCHAR
STARTCHAR 00C1
ENCODING 193
SWIDTH 739 0
DWIDTH 17 0
BBX 16 23 1 0
BITMAP
0060
00C0
0080
0100
0000
0000
0380
0380
07C0
06C0
0EE0
0C60
0C70
1830
1830
3838
3FF8
3FFC
600C
600C
E006
C006
C007
ENDCHAR
STARTCHAR 00C2
ENCODING 194
SWIDTH 739 0
DWIDTH 17 0
BBX 16 23 1 0
BITMAP
0380
03C0
06C0
0460
0000
0000
0380
0380
07C0
06C0
0EE0
0C60
0C70
1830
1830
3838
3FF8
3FFC
600C
600C
E006
C006
C007
ENDCHAR
STARTCHAR 00C3
ENCODING 195
SWIDTH 739 0
DWIDTH 17 0
BBX 16 22 1 0
BITMAP
0760
0DC0
0000
0000
0000
0380
0380
07C0
06C0
0EE0
0C60
0C70
1830
1830
3838
3FF8
3FFC
600C
600C
E006
C006
C007
ENDCHAR
STARTCHAR 00C4
ENCODING 196
SWIDTH 782 0
DWIDTH 18 0
BBX 16 22 1 0
BITMAP
0630
0630
0000
0000
0000
01C0
03C0
03E0
0760
0660
0670
0C30
0C38
1C18
181C
3FFC
3FFC
3006
6006
6007
E003
C003
ENDCHAR
STARTCHAR 00C5
ENCODING 197
SWIDTH 739 0
DWIDTH 17 0
BBX 16 24 1 0
BITMAP
0380
06C0
0440
0440
0380
0000
0000
0380
0380
07C0
06C0
06E0
0C60
0C70
1C30
1830
1818
3FF8
3FFC
600C
600C
E006
C006
C007
ENDCHAR
STARTCHAR 00C6
ENCODING 198
SWIDTH 1000 0
DWIDTH 23 0
BBX 21 17 1 0
BITMAP
00FFF8
00F000
01F000
01B000
03B000
033000
073000
063000
0E3FF8
0C3000
1C3000
1FF000
383000
303000
703000
603000
C03FF8
ENDCHAR
STARTCHAR 00C7
ENCODING 199
SWIDTH 652 0
DWIDTH 15 0
BBX 13 22 1 -5
BITMAP
0FC0
3FF0
3038
6018
6018
C000
C000
C000
C000
C000
C000
C000
6000
6018
7030
3FF0
0FC0
0200
03C0
00E0
0060
07E0
ENDCHAR
STARTCHAR 00C8
ENCODING 200
SWIDTH 608 0
DWIDTH 14 0
BBX 11 23 2 0
BITMAP
3000
1800
0C00
0400
0000
0000
FFE0
C000
C000
C000
C000
C000
C000
C000
FFC0
C000
C000
C000
C000
C000
C000
C000
FFE0
ENDCHAR
STARTCHAR 00C9
ENCODING 201
SWIDTH 608 0
DWIDTH 14 0
BBX 11 23 2 0
BITMAP
0300
0600
0600
0C00
0000
0000
FFE0
C000
C000
C000
C000
C000
C000
C000
FFC0
C000
C000
C000
C000
C000
C000
C000
FFE0
ENDCHAR
STARTCHAR 00CA
ENCODING 202
SWIDTH 608 0
DWIDTH 14 0
BBX 11 23 2 0
BITMAP
1E00
1E00
3300
2100
0000
0000
FFE0
C000
C000
C000
C000
C000
C000
C000
FFC0
C000
C000
C000
C000
C000
C000
C000
FFE0
ENDCHAR
STARTCHAR 00CB
ENCODING 203
SWIDTH 608 0
DWIDTH 14 0
BBX 11 22 2 0
BITMAP
3300
3300
0000
0000
0000
FFE0
C000
C000
C000
C000
C000
C000
C000
FFC0
C000
C000
C000
C000
C000
C000
C000
FFE0
ENDCHAR
STARTCHAR 00CC
ENCODING 204
SWIDTH 260 0
DWIDTH 6 0
BBX 4 23 0 0
BITMAP
C0
60
30
10
00
00
30
30
30
30
30
30
30
30
30
30
30
30
30
30
30
30
30
ENDCHAR
STARTCHAR 00CD
ENCODING 205
SWIDTH 260 0
DWIDTH 6 0
BBX 4 23 2 0
BITMAP
30
60
40
C0
00
00
C0
C0
C0
C0
C0
C0
C0
C0
C0
C0
C0
C0
C0
C0
C0
C0
C0
ENDCHAR
STARTCHAR 00CE
ENCODING 206
SWIDTH 260 0
DWIDTH 6 0
BBX 6 23 0 0
BITMAP
38
78
4C
C4
00
00
30
30
30
30
30
30
30
30
30
30
30
30
30
30
30
30
30
ENDCHAR
STARTCHAR 00CF
ENCODING 207
SWIDTH 304 0
DWIDTH 7 0
BBX 7 22 0 0
BITMAP
C6
C6
00
00
00
30
30
30
30
30
30
30
30
30
30
30
30
30
30
30
30
30
ENDCHAR
STARTCHAR 00D0
ENCODING 208
SWIDTH 739 0
DWIDTH 17 0
BBX 15 17 0 0
BITMAP
3FC0
31F0
3038
300C
300C
3006
3006
3006
FF06
3006
3006
3006
300C
301C
3038
31F0
3FC0
ENDCHAR
STARTCHAR 00D1
ENCODING 209
SWIDTH 739 0
DWIDTH 17 0
BBX 13 22 2 0
BITMAP
0EC0
1F80
0000
0000
0000
E018
F018
F818
F818
DC18
DC18
CE18
C618
C718
C318
C398
C1D8
C1D8
C0F8
C0F8
C078
C038
ENDCHAR
STARTCHAR 00D2
ENCODING 210
SWIDTH 739 0
DWIDTH 17 0
BBX 15 24 1 0
BITMAP
0E00
0600
0300
0100
0180
0000
0000
07C0
1EF0
3018
600C
600C
C006
C006
C006
C006
C006
C006
E00E
600C
600C
3018
1EF0
07C0
ENDCHAR
STARTCHAR 00D3
ENCODING 211
SWIDTH 739 0
DWIDTH 17 0
BBX 15 24 1 0
BITMAP
00E0
00C0
0180
0100
0300
0000
0000
07C0
1EF0
3018
600C
600C
C006
C006
C006
C006
C006
C006
E00E
600C
600C
3018
1EF0
07C0
ENDCHAR
STARTCHAR 00D4
ENCODING 212
SWIDTH 739 0
DWIDTH 17 0
BBX 15 24 1 0
BITMAP
0380
0380
06C0
0440
0C20
0000
0000
07C0
1EF0
3018
600C
600C
C006
C006
C006
C006
C006
C006
E00E
600C
600C
3018
1EF0
07C0
ENDCHAR
STARTCHAR 00D5
ENCODING 213
SWIDTH 739 0
DWIDTH 17 0
BBX 15 22 1 0
BITMAP
0760
0DC0
0000
0000
0000
07C0
1EF0
3018
600C
600C
C006
C006
C006
C006
C006
C006
E00E
600C
701C
3838
1FF0
07C0
ENDCHAR
STARTCHAR 00D6
ENCODING 214
SWIDTH 739 0
DWIDTH 17 0
BBX 15 22 1 0
BITMAP
0660
0660
0000
0000
0000
07C0
1EF0
3018
600C
600C
C006
C006
C006
C006
C006
C006
E00E
600C
600C
3018
1EF0
07C0
ENDCHAR
STARTCHAR 00D7
ENCODING 215
SWIDTH 1000 0
DWIDTH 23 0
BBX 13 12 5 1
BITMAP
C018
6030
3060
18C0
0D80
0700
0700
0D80
18C0
3060
6030
C018
ENDCHAR
STARTCHAR 00D8
ENCODING 216
SWIDTH 739 0
DWIDTH 17 0
BBX 15 21 1 -2
BITMAP
0004
000E
07EC
1EF8
303C
603C
606E
C0E6
C0C6
C1C6
C386
C306
C706
EE0E
6C0C
7C0C
7818
3EF0
6FC0
E000
4000
ENDCHAR
STARTCHAR 00D9
ENCODING 217
SWIDTH 739 0
DWIDTH 17 0
BBX 13 24 2 0
BITMAP
1C00
0C00
0600
0200
0100
0000
0000
C018
C018
C018
C018
C018
C018
C018
C018
C018
C018
C018
C018
E018
6038
7070
3FE0
1FC0
ENDCHAR
STARTCHAR 00DA
ENCODING 218
SWIDTH 739 0
DWIDTH 17 0
BBX 13 24 2 0
BITMAP
01C0
0180
0300
0200
0600
0000
0000
C018
C018
C018
C018
C018
C018
C018
C018
C018
C018
C018
C018
E018
6038
7070
3FE0
1FC0
ENDCHAR
STARTCHAR 00DB
ENCODING 219
SWIDTH 739 0
DWIDTH 17 0
BBX 13 24 2 0
BITMAP
0700
0700
0D80
0880
1840
0000
0000
C018
C018
C018
C018
C018
C018
C018
C018
C018
C018
C018
C018
E018
6038
7070
3FE0
1FC0
ENDCHAR
STARTCHAR 00DC
ENCODING 220
SWIDTH 739 0
DWIDTH 17 0
BBX 13 22 2 0
BITMAP
0CC0
0CC0
0000
0000
0000
C018
C018
C018
C018
C018
C018
C018
C018
C018
C018
C018
C018
C018
6038
6030
3DE0
1FC0
ENDCHAR
STARTCHAR 00DD
ENCODING 221
SWIDTH 652 0
DWIDTH 15 0
BBX 14 23 0 0
BITMAP
00C0
0180
0180
0300
0000
0000
E01C
7018
7038
3830
1870
1C60
0CC0
0EC0
0780
0380
0300
0300
0300
0300
0300
0300
0300
ENDCHAR
STARTCHAR 00DE
ENCODING 222
SWIDTH 608 0
DWIDTH 14 0
BBX 11 17 2 0
BITMAP
C000
C000
C000
C000
FF80
C1C0
C0E0
C060
C060
C060
C1C0
FF80
C000
C000
C000
C000
C000
ENDCHAR
STARTCHAR 00DF
ENCODING 223
SWIDTH 565 0
DWIDTH 13 0
BBX 12 17 1 0
BITMAP
1F00
7F80
E0C0
C0C0
C1C0
C380
C700
C600
C600
C380
C1E0
C070
C030
C030
CC30
CF60
C3C0
ENDCHAR
STARTCHAR 00E0
ENCODING 224
SWIDTH 565 0
DWIDTH 13 0
BBX 10 18 1 0
BITMAP
1800
0C00
0400
0600
0000
0000
1F00
7B80
60C0
60C0
00C0
3FC0
78C0
E0C0
C0C0
C1C0
77C0
3CC0
ENDCHAR
STARTCHAR 00E1
ENCODING 225
SWIDTH 565 0
DWIDTH 13 0
BBX 10 19 1 0
BITMAP
0300
0600
0600
0C00
0800
0000
0000
1F00
7B80
60C0
60C0
00C0
3FC0
78C0
E0C0
C0C0
C1C0
77C0
3CC0
ENDCHAR
STARTCHAR 00E2
ENCODING 226
SWIDTH 565 0
DWIDTH 13 0
BBX 10 19 1 0
BITMAP
0E00
0E00
1B00
3300
2180
0000
0000
1F00
7B80
60C0
60C0
00C0
3FC0
78C0
E0C0
C0C0
C1C0
77C0
3CC0
ENDCHAR
STARTCHAR 00E3
ENCODING 227
SWIDTH 565 0
DWIDTH 13 0
BBX 10 17 1 0
BITMAP
1D80
3F00
0000
0000
0000
1F00
7B80
60C0
00C0
07C0
3FC0
70C0
C0C0
C1C0
C1C0
77C0
3CC0
ENDCHAR
STARTCHAR 00E4
ENCODING 228
SWIDTH 565 0
DWIDTH 13 0
BBX 10 17 1 0
BITMAP
3180
3180
0000
0000
0000
1F00
7B80
60C0
60C0
00C0
3FC0
78C0
E0C0
C0C0
C1C0
77C0
3CC0
ENDCHAR
STARTCHAR 00E5
ENCODING 229
SWIDTH 565 0
DWIDTH 13 0
BBX 10 20 1 0
BITMAP
0E00
1B00
1100
1100
1B00
0E00
0000
0000
1F00
7B80
60C0
60C0
00C0
3FC0
78C0
E0C0
C0C0
C1C0
77C0
3EC0
ENDCHAR
STARTCHAR 00E6
ENCODING 230
SWIDTH 869 0
DWIDTH 20 0
BBX 18 12 1 0
BITMAP
1E1F00
7FBF80
61E180
00E0C0
00C0C0
3FFFC0
78C000
E0C000
C0E0C0
C1E180
7F3F80
3E1F00
ENDCHAR
STARTCHAR 00E7
ENCODING 231
SWIDTH 521 0
DWIDTH 12 0
BBX 10 17 1 -5
BITMAP
1F00
7F80
61C0
C0C0
C000
C000
C000
C000
C0C0
61C0
7F80
1F00
0800
0F00
0380
0180
1F00
ENDCHAR
STARTCHAR 00E8
ENCODING 232
SWIDTH 565 0
DWIDTH 13 0
BBX 10 19 1 0
BITMAP
3000
1800
0800
0C00
0600
0000
0000
1F00
7F80
60C0
C0C0
C0C0
FFC0
C000
C000
C0C0
60C0
3F80
1F00
ENDCHAR
STARTCHAR 00E9
ENCODING 233
SWIDTH 565 0
DWIDTH 13 0
BBX 10 19 1 0
BITMAP
0300
0700
0600
0C00
0800
0000
0000
1F00
7F80
60C0
C0C0
C0C0
FFC0
C000
C000
C0C0
60C0
3F80
1F00
ENDCHAR
STARTCHAR 00EA
ENCODING 234
SWIDTH 565 0
DWIDTH 13 0
BBX 10 19 1 0
BITMAP
0C00
1E00
1A00
3300
2100
0000
0000
1F00
7F80
60C0
C0C0
C0C0
FFC0
C000
C000
C0C0
60C0
3F80
1F00
ENDCHAR
STARTCHAR 00EB
ENCODING 235
SWIDTH 565 0
DWIDTH 13 0
BBX 11 17 1 0
BITMAP
3180
3180
0000
0000
0000
1F00
3BC0
60C0
E060
C060
FFE0
C000
C000
C060
60C0
3BC0
1F00
ENDCHAR
STARTCHAR 00EC
ENCODING 236
SWIDTH 260 0
DWIDTH 6 0
BBX 4 18 0 0
BITMAP
C0
60
30
10
00
00
30
30
30
30
30
30
30
30
30
30
30
30
ENDCHAR
STARTCHAR 00ED
ENCODING 237
SWIDTH 260 0
DWIDTH 6 0
BBX 4 18 2 0
BITMAP
30
60
C0
80
00
00
C0
C0
C0
C0
C0
C0
C0
C0
C0
C0
C0
C0
ENDCHAR
STARTCHAR 00EE
ENCODING 238
SWIDTH 260 0
DWIDTH 6 0
BBX 6 18 0 0
BITMAP
78
78
CC
84
00
00
30
30
30
30
30
30
30
30
30
30
30
30
ENDCHAR
STARTCHAR 00EF
ENCODING 239
SWIDTH 217 0
DWIDTH 5 0
BBX 6 17 -1 0
BITMAP
CC
CC
00
00
00
30
30
30
30
30
30
30
30
30
30
30
30
ENDCHAR
STARTCHAR 00F0
ENCODING 240
SWIDTH 565 0
DWIDTH 13 0
BBX 11 17 1 0
BITMAP
6180
3F00
1E00
7700
0380
1FC0
7FC0
60E0
E060
C060
C060
C060
C060
E060
60C0
3FC0
1F00
ENDCHAR
STARTCHAR 00F1
ENCODING 241
SWIDTH 608 0
DWIDTH 14 0
BBX 10 17 2 0
BITMAP
1900
3F00
0000
0000
0000
DF00
FF80
E1C0
C0C0
C0C0
C0C0
C0C0
C0C0
C0C0
C0C0
C0C0
C0C0
ENDCHAR
STARTCHAR 00F2
ENCODING 242
SWIDTH 565 0
DWIDTH 13 0
BBX 11 19 1 0
BITMAP
3800
1800
0C00
0400
0200
0000
0000
1F00
3FC0
60C0
E0E0
C060
C060
C060
C060
E0E0
60C0
3FC0
1F00
ENDCHAR
STARTCHAR 00F3
ENCODING 243
SWIDTH 565 0
DWIDTH 13 0
BBX 11 19 1 0
BITMAP
0380
0300
0600
0400
0C00
0000
0000
1F00
3FC0
60C0
E0E0
C060
C060
C060
C060
E0E0
60C0
3FC0
1F00
ENDCHAR
STARTCHAR 00F4
ENCODING 244
SWIDTH 565 0
DWIDTH 13 0
BBX 11 19 1 0
BITMAP
0E00
0E00
1B00
1100
3180
0000
0000
1F00
3FC0
60C0
E0E0
C060
C060
C060
C060
E0E0
60C0
3FC0
1F00
ENDCHAR
STARTCHAR 00F5
ENCODING 245
SWIDTH 565 0
DWIDTH 13 0
BBX 11 17 1 0
BITMAP
1D80
3F00
0000
0000
0000
1F00
3FC0
60C0
E0E0
C060
C060
C060
C060
E0E0
60C0
3FC0
1F00
ENDCHAR
STARTCHAR 00F6
ENCODING 246
SWIDTH 565 0
DWIDTH 13 0
BBX 11 17 1 0
BITMAP
3180
3180
0000
0000
0000
1F00
3FC0
60C0
E0E0
C060
C060
C060
C060
E0E0
60C0
3FC0
1F00
ENDCHAR
STARTCHAR 00F7
ENCODING 247
SWIDTH 1043 0
DWIDTH 24 0
BBX 14 10 5 2
BITMAP
0300
0300
0300
0000
0000
FFFC
0000
0300
0300
0300
ENDCHAR
STARTCHAR 00F8
ENCODING 248
SWIDTH 565 0
DWIDTH 13 0
BBX 11 15 1 -2
BITMAP
0020
0060
1FC0
3FC0
61C0
E3E0
C260
C660
CC60
D860
F8E0
70C0
7BC0
5F00
C000
ENDCHAR
STARTCHAR 00F9
ENCODING 249
SWIDTH 608 0
DWIDTH 14 0
BBX 10 19 2 0
BITMAP
3000
1800
1800
0C00
0400
0000
0000
C0C0
C0C0
C0C0
C0C0
C0C0
C0C0
C0C0
C0C0
C0C0
E1C0
77C0
3CC0
ENDCHAR
STARTCHAR 00FA
ENCODING 250
SWIDTH 608 0
DWIDTH 14 0
BBX 10 19 2 0
BITMAP
0300
0600
0600
0C00
0800
0000
0000
C0C0
C0C0
C0C0
C0C0
C0C0
C0C0
C0C0
C0C0
C0C0
E1C0
77C0
3CC0
ENDCHAR
STARTCHAR 00FB
ENCODING 251
SWIDTH 608 0
DWIDTH 14 0
BBX 10 19 2 0
BITMAP
0C00
1E00
1E00
3300
2100
0000
0000
C0C0
C0C0
C0C0
C0C0
C0C0
C0C0
C0C0
C0C0
C0C0
E1C0
77C0
3CC0
ENDCHAR
STARTCHAR 00FC
ENCODING 252
SWIDTH 608 0
DWIDTH 14 0
BBX 10 17 2 0
BITMAP
3300
3300
0000
0000
0000
C0C0
C0C0
C0C0
C0C0
C0C0
C0C0
C0C0
C0C0
C0C0
E1C0
7FC0
3CC0
ENDCHAR
STARTCHAR 00FD
ENCODING 253
SWIDTH 521 0
DWIDTH 12 0
BBX 11 23 1 -5
BITMAP
0300
0300
0600
0C00
0000
0000
C060
C0C0
E0C0
61C0
7180
3180
3380
3B00
1B00
1E00
0E00
0E00
0C00
0C00
DC00
F800
7000
ENDCHAR
STARTCHAR 00FE
ENCODING 254
SWIDTH 608 0
DWIDTH 14 0
BBX 11 22 2 -5
BITMAP
C000
C000
C000
C000
C000
CF00
FBC0
E0C0
E0E0
C060
C060
C060
C060
E0E0
E0C0
FBC0
CF00
C000
C000
C000
C000
C000
ENDCHAR
STARTCHAR 00FF
ENCODING 255
SWIDTH 565 0
DWIDTH 13 0
BBX 11 22 1 -5
BITMAP
3180
3180
0000
0000
0000
C060
E060
60E0
60C0
71C0
3180
3980
1B80
1B00
1F00
0E00
0E00
0E00
0C00
0C00
1C00
1800
ENDCHAR
STARTCHAR 0131
ENCODING 305
SWIDTH 260 0
DWIDTH 6 0
BBX 2 12 2 0
BITMAP
C0
C0
C0
C0
C0
C0
C0
C0
C0
C0
C0
C0
ENDCHAR
STARTCHAR 0141
ENCODING 321
SWIDTH 565 0
DWIDTH 13 0
BBX 12 17 1 0
BITMAP
3000
3000
3000
3000
3200
3E00
3800
3000
3000
7000
B000
3000
3000
3000
3000
3FF0
3FF0
ENDCHAR
STARTCHAR 0142
ENCODING 322
SWIDTH 347 0
DWIDTH 8 0
BBX 6 17 1 0
BITMAP
30
30
30
30
34
3C
38
30
70
70
B0
30
30
30
30
30
30
ENDCHAR
STARTCHAR 0152
ENCODING 338
SWIDTH 1000 0
DWIDTH 23 0
BBX 21 17 1 0
BITMAP
07FFF8
1EF800
301800
701800
601800
E01800
C01800
C01FF0
C01800
C01800
C01800
E01800
601800
601800
301800
1EF800
07FFF8
ENDCHAR
STARTCHAR 0153
ENCODING 339
SWIDTH 913 0
DWIDTH 21 0
BBX 19 12 1 0
BITMAP
1F0F80
3B9FC0
60F0E0
E0E060
C06060
C07FE0
C06000
C06000
E0E060
60F0E0
3B9FC0
1F0F80
ENDCHAR
STARTCHAR 0160
ENCODING 352
SWIDTH 652 0
DWIDTH 15 0
BBX 12 24 1 0
BITMAP
18C0
1980
0D80
0F00
0700
0000
0000
1F80
3FE0
6070
C030
C000
E000
F000
7F80
3FE0
03F0
0070
0030
C030
C030
6070
7BE0
1F80
ENDCHAR
STARTCHAR 0161
ENCODING 353
SWIDTH 478 0
DWIDTH 11 0
BBX 9 18 1 0
BITMAP
6300
3600
3600
1C00
0000
0000
3E00
7780
C180
C000
E000
7E00
1F80
0180
C180
C180
7F00
3E00
ENDCHAR
STARTCHAR 0178
ENCODING 376
SWIDTH 652 0
DWIDTH 15 0
BBX 15 22 0 0
BITMAP
0C60
0C60
0000
0000
0000
E00E
701C
3018
3838
1830
1C60
0CE0
06C0
0780
0380
0300
0300
0300
0300
0300
0300
0300
ENDCHAR
STARTCHAR 017D
ENCODING 381
SWIDTH 608 0
DWIDTH 14 0
BBX 12 23 1 0
BITMAP
1880
0980
0F00
0700
0000
0000
7FF0
0030
0070
00E0
01C0
01C0
0380
0700
0700
0E00
1C00
3C00
3800
7000
F000
E000
FFF0
ENDCHAR
STARTCHAR 017E
ENCODING 382
SWIDTH 434 0
DWIDTH 10 0
BBX 8 18 1 0
BITMAP
C6
6C
78
38
00
00
FF
03
07
0E
0C
18
38
30
60
E0
C0
FF
ENDCHAR
STARTCHAR 0192
ENCODING 402
SWIDTH 521 0
DWIDTH 12 0
BBX 14 22 -2 -5
BITMAP
003C
007C
00E0
00C0
00C0
07F0
0180
0180
0180
0380
0300
0300
0300
0700
0600
0600
0600
0C00
0C00
0C00
7800
F000
ENDCHAR
STARTCHAR 02C6
ENCODING 710
SWIDTH 304 0
DWIDTH 7 0
BBX 6 4 0 14
BITMAP
38
78
6C
C4
ENDCHAR
STARTCHAR 02C7
ENCODING 711
SWIDTH 304 0
DWIDTH 7 0
BBX 6 4 0 14
BITMAP
C4
6C
78
38
ENDCHAR
STARTCHAR 02D8
ENCODING 728
SWIDTH 260 0
DWIDTH 6 0
BBX 6 2 0 15
BITMAP
C4
7C
ENDCHAR
STARTCHAR 02D9
ENCODING 729
SWIDTH 86 0
DWIDTH 2 0
BBX 2 2 0 14
BITMAP
C0
C0
ENDCHAR
STARTCHAR 02DA
ENCODING 730
SWIDTH 217 0
DWIDTH 5 0
BBX 5 5 0 14
BITMAP
70
D8
88
88
70
ENDCHAR
STARTCHAR 02DB
ENCODING 731
SWIDTH 173 0
DWIDTH 4 0
BBX 4 5 0 -5
BITMAP
20
40
C0
F0
F0
ENDCHAR
STARTCHAR 02DC
ENCODING 732
SWIDTH 304 0
DWIDTH 7 0
BBX 7 2 0 15
BITMAP
76
FC
ENDCHAR
STARTCHAR 02DD
ENCODING 733
SWIDTH 304 0
DWIDTH 7 0
BBX 7 4 0 14
BITMAP
66
6C
48
98
ENDCHAR
STARTCHAR 0394
ENCODING 916
SWIDTH 652 0
DWIDTH 15 0
BBX 14 16 0 1
BITMAP
0100
0180
0380
03C0
05C0
04C0
0CE0
0860
0870
1070
1030
2038
2018
401C
401C
FFFC
ENDCHAR
STARTCHAR 03A9
ENCODING 937
SWIDTH 782 0
DWIDTH 18 0
BBX 16 17 1 0
BITMAP
07E0
1818
300C
700E
E006
E007
E007
E007
E007
E006
600E
700C
3818
0C60
8461
FC7F
FC7F
ENDCHAR
STARTCHAR 03BC
ENCODING 956
SWIDTH 652 0
DWIDTH 15 0
BBX 13 17 2 -5
BITMAP
C0C0
C0C0
C0C0
C0C0
C0C0
C0C0
C0C0
C0C0
C0C0
E1C0
FFF8
FE78
C000
C000
C000
C000
C000
ENDCHAR
STARTCHAR 03C0
ENCODING 960
SWIDTH 565 0
DWIDTH 13 0
BBX 12 12 0 0
BITMAP
3FF0
7FF0
9980
1980
1980
1180
1180
1180
3180
3190
71E0
60E0
ENDCHAR
STARTCHAR 2013
ENCODING 8211
SWIDTH 521 0
DWIDTH 12 0
BBX 12 1 0 5
BITMAP
FFF0
ENDCHAR
STARTCHAR 2014
ENCODING 8212
SWIDTH 1000 0
DWIDTH 23 0
BBX 23 1 0 5
BITMAP
FFFFFE
ENDCHAR
STARTCHAR 2018
ENCODING 8216
SWIDTH 260 0
DWIDTH 6 0
BBX 4 6 1 11
BITMAP
30
30
60
60
E0
E0
ENDCHAR
STARTCHAR 2019
ENCODING 8217
SWIDTH 260 0
DWIDTH 6 0
BBX 4 6 1 11
BITMAP
70
60
60
E0
C0
C0
ENDCHAR
STARTCHAR 201A
ENCODING 8218
SWIDTH 260 0
DWIDTH 6 0
BBX 4 6 1 -3
BITMAP
70
60
60
E0
C0
C0
ENDCHAR
STARTCHAR 201C
ENCODING 8220
SWIDTH 434 0
DWIDTH 10 0
BBX 8 6 1 11
BITMAP
33
33
63
66
E6
EE
ENDCHAR
STARTCHAR 201D
ENCODING 8221
SWIDTH 434 0
DWIDTH 10 0
BBX 8 6 1 11
BITMAP
77
67
66
E6
CC
CC
ENDCHAR
STARTCHAR 201E
ENCODING 8222
SWIDTH 434 0
DWIDTH 10 0
BBX 8 6 1 -3
BITMAP
77
67
66
E6
CC
CC
ENDCHAR
STARTCHAR 2020
ENCODING 8224
SWIDTH 565 0
DWIDTH 13 0
BBX 11 21 1 -4
BITMAP
0C00
0C00
0C00
0C00
0C00
FFE0
0C00
0C00
0C00
0C00
0C00
0C00
0C00
0C00
0C00
0C00
0C00
0C00
0C00
0C00
0C00
ENDCHAR
STARTCHAR 2021
ENCODING 8225
SWIDTH 565 0
DWIDTH 13 0
BBX 11 21 1 -4
BITMAP
0C00
0C00
0C00
0C00
0C00
FFE0
0C00
0C00
0C00
0C00
0C00
0C00
0C00
0C00
FFE0
0C00
0C00
0C00
0C00
0C00
0C00
ENDCHAR
STARTCHAR 2022
ENCODING 8226
SWIDTH 304 0
DWIDTH 7 0
BBX 5 5 1 5
BITMAP
70
F8
F8
F8
70
ENDCHAR
STARTCHAR 2026
ENCODING 8230
SWIDTH 956 0
DWIDTH 22 0
BBX 20 3 1 0
BITMAP
C06030
C06030
C06030
ENDCHAR
STARTCHAR 2030
ENCODING 8240
SWIDTH 1304 0
DWIDTH 30 0
BBX 28 17 1 0
BITMAP
3C020000
7E040000
E30C0000
C3080000
C3180000
C3100000
C3300000
66600000
3E4783C0
00CFC7E0
00986E30
01986C30
01186C30
02186C30
06186C30
040FC7E0
0C0783C0
ENDCHAR
STARTCHAR 2039
ENCODING 8249
SWIDTH 347 0
DWIDTH 8 0
BBX 4 9 2 1
BITMAP
30
30
60
E0
C0
E0
60
30
10
ENDCHAR
STARTCHAR 203A
ENCODING 8250
SWIDTH 347 0
DWIDTH 8 0
BBX 5 9 2 1
BITMAP
C0
60
60
30
38
30
60
60
C0
ENDCHAR
STARTCHAR 2044
ENCODING 8260
SWIDTH 565 0
DWIDTH 13 0
BBX 11 17 1 0
BITMAP
0060
0040
00C0
0180
0180
0300
0200
0600
0400
0C00
1800
1800
3000
2000
6000
4000
C000
ENDCHAR
STARTCHAR 2122
ENCODING 8482
SWIDTH 652 0
DWIDTH 15 0
BBX 13 6 1 10
BITMAP
FB18
2318
22A8
22A8
22E8
2248
ENDCHAR
STARTCHAR 2202
ENCODING 8706
SWIDTH 565 0
DWIDTH 13 0
BBX 10 19 1 -1
BITMAP
7C00
2300
0100
0080
0080
00C0
00C0
00C0
1CC0
73C0
60C0
E0C0
C1C0
C180
C180
C180
4300
6600
1C00
ENDCHAR
STARTCHAR 220F
ENCODING 8719
SWIDTH 869 0
DWIDTH 20 0
BBX 19 21 0 -3
BITMAP
FFFFE0
3C0380
1C0380
1C0380
1C0380
1C0380
1C0380
1C0380
1C0380
1C0380
1C0380
1C0380
1C0380
1C0380
1C0380
1C0380
1C0380
1C0380
1C0380
3C0380
FF0FE0
ENDCHAR
STARTCHAR 2211
ENCODING 8721
SWIDTH 739 0
DWIDTH 17 0
BBX 15 20 1 -2
BITMAP
FFFC
700C
7004
3804
1C00
0E00
0E00
0700
0380
01C0
0180
0100
0300
0600
0C00
0800
1002
2006
7FFE
FFFE
ENDCHAR
STARTCHAR 2212
ENCODING 8722
SWIDTH 1000 0
DWIDTH 23 0
BBX 14 1 5 6
BITMAP
FFFC
ENDCHAR
STARTCHAR 221A
ENCODING 8730
SWIDTH 565 0
DWIDTH 13 0
BBX 13 16 0 0
BITMAP
0018
0010
0010
0020
0020
2020
F020
1040
1840
0840
0C80
0480
0680
0280
0300
0100
ENDCHAR
STARTCHAR 221E
ENCODING 8734
SWIDTH 1000 0
DWIDTH 23 0
BBX 15 6 4 4
BITMAP
783C
C6C6
8382
8382
C6C6
783C
ENDCHAR
STARTCHAR 222B
ENCODING 8747
SWIDTH 478 0
DWIDTH 11 0
BBX 10 21 0 -5
BITMAP
0380
07C0
0400
0400
0C00
0C00
0C00
0C00
0C00
0C00
0C00
0C00
0C00
0C00
0C00
0C00
0C00
0800
0800
4800
F000
ENDCHAR
STARTCHAR 2248
ENCODING 8776
SWIDTH 1000 0
DWIDTH 23 0
BBX 13 6 5 4
BITMAP
FE08
83F8
0000
0000
FE08
83F8
ENDCHAR
STARTCHAR 2260
ENCODING 8800
SWIDTH 1000 0
DWIDTH 23 0
BBX 14 11 5 1
BITMAP
0010
0030
0060
FFFC
0180
0300
0600
FFFC
1800
3000
2000
ENDCHAR
STARTCHAR 2264
ENCODING 8804
SWIDTH 1000 0
DWIDTH 23 0
BBX 14 13 5 0
BITMAP
0004
003C
01E0
0F00
F000
C000
7800
0780
00F0
001C
0000
0000
FFFC
ENDCHAR
STARTCHAR 2265
ENCODING 8805
SWIDTH 1000 0
DWIDTH 23 0
BBX 14 13 5 0
BITMAP
8000
F000
1E00
03C0
0078
000C
00F0
0780
3C00
E000
0000
0000
FFFC
ENDCHAR
STARTCHAR 25CA
ENCODING 9674
SWIDTH 521 0
DWIDTH 12 0
BBX 10 18 1 0
BITMAP
0C00
0E00
1A00
1300
3100
2180
6080
40C0
8040
8040
40C0
6080
2180
3100
1300
1A00
0E00
0C00
ENDCHAR
STARTCHAR FB01
ENCODING 64257
SWIDTH 608 0
DWIDTH 14 0
BBX 11 17 1 0
BITMAP
1E60
3E60
3000
3000
3000
FE60
3060
3060
3060
3060
3060
3060
3060
3060
3060
3060
3060
ENDCHAR
STARTCHAR FB02
ENCODING 64258
SWIDTH 608 0
DWIDTH 14 0
BBX 11 17 1 0
BITMAP
1E60
3E60
3060
3060
3060
FE60
3060
3060
3060
3060
3060
3060
3060
3060
3060
3060
3060
ENDCHAR
ENDFONT
